<svg xmlns="http://www.w3.org/2000/svg" width="512" height="512"><g style="display:inline" transform="translate(-53.452 -43.352)scale(1.11813)"><circle cx="256" cy="240.312" r="21.5" style="opacity:1;fill:#000;fill-opacity:1;fill-rule:nonzero;stroke:none;stroke-width:2.19597;stroke-linecap:round;stroke-linejoin:round;stroke-miterlimit:4;stroke-dasharray:none;stroke-dashoffset:0;stroke-opacity:1;paint-order:markers fill stroke;filter:url(#filter249)"/><path d="M220.85 277.951 183.5 315.6l36 36.1 20-19.7s5.856-6.2 16.5-6.2 16.5 6.2 16.5 6.2l20 19.7 36-36.1-37.35-37.649A51.5 51.5 0 0 1 256 291.812a51.5 51.5 0 0 1-35.15-13.86" style="opacity:1;fill:#000;fill-opacity:1;stroke:none;stroke-width:1px;stroke-linecap:butt;stroke-linejoin:miter;stroke-opacity:1;filter:url(#filter249)"/><path d="M256 145.4a25.7 25.7 0 0 0-18.229 7.551L66.97 323.47A25.42 25.42 0 0 0 59.5 341.5c0 14.083 11.417 25.5 25.5 25.5a25.42 25.42 0 0 0 18.031-7.469l103.895-103.597a51.5 51.5 0 0 1-2.426-15.621 51.5 51.5 0 0 1 51.5-51.5 51.5 51.5 0 0 1 51.5 51.5 51.5 51.5 0 0 1-2.426 15.62L408.97 359.532A25.42 25.42 0 0 0 427 367c14.083 0 25.5-11.417 25.5-25.5a25.42 25.42 0 0 0-7.469-18.031L274.23 152.95a25.7 25.7 0 0 0-18.229-7.55" style="display:inline;opacity:1;fill:#000;fill-opacity:1;stroke-width:2.2;stroke-linecap:round;stroke-linejoin:round;paint-order:markers fill stroke;filter:url(#filter249)"/></g></svg>